<svg width="456" height="456" viewBox="0 0 456 456" fill="none" xmlns="http://www.w3.org/2000/svg">
<path d="M382.731 273.708C380.028 273.708 377.73 272.807 375.838 271.005C373.946 269.158 373 266.964 373 264.423C373 261.836 373.946 259.619 375.838 257.772C377.73 255.924 380.028 255 382.731 255C385.479 255 387.799 255.924 389.691 257.772C391.629 259.619 392.597 261.836 392.597 264.423C392.597 266.964 391.629 269.158 389.691 271.005C387.799 272.807 385.479 273.708 382.731 273.708Z" fill="#DF1995"/>
<path d="M410.731 273.708C408.028 273.708 405.73 272.807 403.838 271.005C401.946 269.158 401 266.964 401 264.423C401 261.836 401.946 259.619 403.838 257.772C405.73 255.924 408.028 255 410.731 255C413.479 255 415.799 255.924 417.691 257.772C419.629 259.619 420.597 261.836 420.597 264.423C420.597 266.964 419.629 269.158 417.691 271.005C415.799 272.807 413.479 273.708 410.731 273.708Z" fill="#DF1995"/>
<path d="M354.731 273.708C352.028 273.708 349.73 272.807 347.838 271.005C345.946 269.158 345 266.964 345 264.423C345 261.836 345.946 259.619 347.838 257.772C349.73 255.924 352.028 255 354.731 255C357.479 255 359.799 255.924 361.691 257.772C363.629 259.619 364.597 261.836 364.597 264.423C364.597 266.964 363.629 269.158 361.691 271.005C359.799 272.807 357.479 273.708 354.731 273.708Z" fill="#DF1995"/>
<path d="M223.883 156.812V162.086H208.258V268.727H218.609C221.344 268.987 223.102 270.745 223.883 274H166.266V268.727H181.891V175.953L139.898 275.953H136.383L94.7812 195.094V268.727H105.133C107.867 268.987 109.625 270.745 110.406 274H70.9531V268.727H86.5781V162.086H70.9531V156.812H105.914L146.93 240.797L181.891 156.812H223.883ZM325.445 274H229.742V268.727H245.367V162.086H229.742V156.812H289.312V162.086H272.711V268.727H292.828C296.734 268.727 300.185 268.076 303.18 266.773C308.258 264.299 312.164 258.701 314.898 249.977L320.562 231.617H326.227L325.445 274Z" fill="#DF1995"/>
</svg>
